<?xml version="1.0" encoding="UTF-8" standalone="no"?>
<!DOCTYPE svg PUBLIC "-//W3C//DTD SVG 20010904//EN"
              "http://www.w3.org/TR/2001/REC-SVG-20010904/DTD/svg10.dtd">

<svg xmlns="http://www.w3.org/2000/svg"
     width="13.8889in" height="6.94444in"
     viewBox="0 0 1000 500">
  <path id="Selection"
        fill="none" stroke="black" stroke-width="1"
        d="M 137.96,57.52
           C 153.18,70.04 153.30,96.18 143.53,112.00
             135.01,125.80 121.51,132.35 106.00,134.35
             100.48,135.36 98.34,134.90 93.00,134.35
             65.44,130.17 55.35,104.37 64.09,80.00
             70.53,62.03 84.99,52.77 103.00,49.44
             115.14,47.88 128.25,49.52 137.96,57.52 Z
           M 319.80,199.00
           C 319.80,199.00 303.80,219.00 303.80,219.00
             301.71,221.62 297.37,228.20 293.91,228.41
             291.79,228.54 282.87,223.76 280.00,222.60
             270.91,218.92 258.82,215.12 249.00,215.00
             249.00,215.00 245.00,215.00 245.00,215.00
             241.79,215.02 239.14,215.03 236.00,215.94
             230.25,217.60 223.78,222.66 228.45,228.96
             232.98,235.09 250.43,240.47 258.00,243.00
             275.86,248.96 294.30,255.47 306.28,271.00
             324.17,294.05 322.64,331.56 306.28,355.00
             299.70,364.33 290.93,371.24 281.00,376.69
             257.46,389.62 232.91,389.30 207.00,389.00
             186.03,388.75 158.40,378.58 141.00,367.14
             136.92,364.46 123.29,355.44 125.17,350.00
             125.95,347.73 130.20,343.83 131.99,342.00
             131.99,342.00 144.00,329.00 144.00,329.00
             144.00,329.00 154.58,318.00 154.58,318.00
             156.16,316.19 158.58,313.02 161.00,312.45
             163.34,311.90 165.24,313.54 167.00,314.81
             167.00,314.81 179.00,322.99 179.00,322.99
             190.27,329.57 203.99,333.17 217.00,333.91
             224.67,334.34 237.66,332.13 240.74,323.99
             241.87,320.99 241.31,318.59 239.49,316.02
             235.97,311.06 230.40,308.97 225.00,306.80
             225.00,306.80 197.00,296.40 197.00,296.40
             175.95,287.90 157.30,276.29 150.92,253.00
             148.47,244.05 148.90,236.16 149.00,227.00
             149.29,202.61 166.97,181.28 188.00,170.76
             217.74,155.88 259.87,155.58 291.00,166.34
             307.19,171.94 314.07,177.28 328.00,186.00
             326.48,191.61 323.36,194.55 319.80,199.00 Z
           M 48.73,217.00
           C 48.73,217.00 53.58,182.00 53.58,182.00
             53.58,182.00 56.17,168.57 56.17,168.57
             56.17,168.57 64.00,167.00 64.00,167.00
             64.00,167.00 134.00,167.00 134.00,167.00
             134.00,167.00 126.13,227.00 126.13,227.00
             126.13,227.00 113.73,317.00 113.73,317.00
             113.73,317.00 108.73,353.00 108.73,353.00
             108.73,353.00 105.00,381.00 105.00,381.00
             105.00,381.00 26.00,381.00 26.00,381.00
             26.00,381.00 48.73,217.00 48.73,217.00 Z
           M 445.00,225.81
           C 464.36,210.30 496.38,201.82 519.00,215.48
             532.82,223.82 532.95,231.60 539.00,244.00
             541.97,238.47 546.49,234.34 551.00,230.04
             559.27,222.14 571.99,214.68 583.00,211.44
             600.99,206.14 624.69,208.41 637.82,223.01
             650.18,236.77 649.20,252.95 649.00,270.00
             649.00,270.00 643.13,314.00 643.13,314.00
             643.13,314.00 632.73,389.00 632.73,389.00
             632.73,389.00 627.00,431.00 627.00,431.00
             627.00,431.00 548.00,431.00 548.00,431.00
             548.00,431.00 561.27,338.00 561.27,338.00
             561.27,338.00 568.00,289.00 568.00,289.00
             568.07,282.49 566.94,270.30 557.00,276.70
             555.35,277.77 553.42,279.61 552.04,281.02
             544.71,288.48 538.15,303.10 534.42,313.00
             531.21,321.55 528.35,348.34 526.87,359.00
             526.87,359.00 520.73,403.00 520.73,403.00
             520.73,403.00 517.00,431.00 517.00,431.00
             517.00,431.00 438.00,431.00 438.00,431.00
             438.00,431.00 454.58,313.00 454.58,313.00
             454.58,313.00 457.95,285.00 457.95,285.00
             457.80,281.54 456.52,276.76 452.90,275.39
             449.00,273.90 444.50,278.47 442.09,281.02
             435.24,288.25 429.49,300.62 426.05,310.00
             420.16,326.07 418.26,350.45 415.73,368.00
             415.73,368.00 407.73,425.00 407.73,425.00
             407.73,425.00 404.00,441.00 404.00,441.00
             404.00,441.00 25.00,441.00 25.00,441.00
             25.00,441.00 25.00,421.00 25.00,421.00
             25.00,421.00 330.00,421.00 330.00,421.00
             330.00,421.00 337.73,361.00 337.73,361.00
             337.73,361.00 351.13,264.00 351.13,264.00
             351.13,264.00 355.73,231.00 355.73,231.00
             355.73,231.00 358.17,218.57 358.17,218.57
             358.17,218.57 366.00,217.00 366.00,217.00
             366.00,217.00 426.00,217.00 426.00,217.00
             426.00,217.00 428.00,246.00 428.00,246.00
             431.02,238.28 438.60,230.93 445.00,225.81 Z
           M 789.00,209.21
           C 799.30,209.02 811.15,210.97 821.00,214.02
             828.50,216.35 834.34,219.05 841.00,223.23
             867.34,239.77 878.65,269.98 879.00,300.00
             879.21,318.72 875.30,342.24 869.33,360.00
             865.95,370.07 861.27,380.04 855.56,389.00
             839.94,413.54 814.47,430.83 786.00,436.55
             770.95,439.58 758.20,439.17 743.00,439.00
             707.92,438.59 676.53,417.38 665.08,384.00
             659.42,367.50 659.97,353.94 660.00,337.00
             660.01,328.20 661.67,317.67 663.40,309.00
             670.95,271.24 688.92,239.77 724.00,221.32
             739.25,213.30 753.49,211.78 770.00,209.21
             770.00,209.21 789.00,209.21 789.00,209.21 Z
           M 747.29,295.00
           C 741.44,314.89 739.76,334.38 740.00,355.00
             740.15,367.82 744.16,380.56 759.00,381.81
             773.19,383.01 784.10,372.46 788.77,360.00
             793.60,347.11 797.98,322.77 798.00,309.00
             798.00,309.00 798.00,292.00 798.00,292.00
             797.98,282.11 795.89,271.21 785.00,267.56
             781.28,266.64 775.86,266.90 772.00,267.56
             756.64,270.77 751.44,280.94 747.29,295.00 Z
           M 934.00,357.77
           C 958.28,365.26 963.58,394.46 953.02,415.00
             946.92,426.87 934.38,436.77 921.00,438.85
             921.00,438.85 909.00,438.85 909.00,438.85
             892.58,438.80 880.77,428.84 876.76,413.00
             875.71,408.85 875.95,402.43 876.00,398.00
             876.27,375.15 894.72,359.93 916.00,356.43
             922.23,355.66 927.96,355.91 934.00,357.77 Z" />
</svg>
